<svg xmlns="http://www.w3.org/2000/svg" width="1200" height="700" viewBox="0 0 1200 700" role="img" aria-label="Landing page wireframe">
  <defs>
    <filter id="shadow" x="-20%" y="-20%" width="140%" height="140%">
      <feDropShadow dx="0" dy="10" stdDeviation="18" flood-color="#000" flood-opacity=".18"/>
    </filter>
    <style>
      .t { font-family: ui-sans-serif, system-ui, -apple-system, Segoe UI, Roboto, Helvetica, Arial; }
      .muted { fill: #64748b; font-size: 14px; }
      .h1 { fill: #0f172a; font-size: 40px; font-weight: 900; }
      .h2 { fill: #0f172a; font-size: 18px; font-weight: 800; }
      .p { fill: #334155; font-size: 16px; }
      .card { fill: #ffffff; stroke: #e2e8f0; stroke-width: 2; rx: 18; filter: url(#shadow); }
      .btn { rx: 12; }
    </style>
  </defs>

  <rect width="1200" height="700" fill="#0b1220"/>
  <rect x="70" y="60" width="1060" height="580" rx="26" fill="#f8fafc" filter="url(#shadow)"/>

  <rect x="110" y="95" width="980" height="56" rx="16" fill="#ffffff" stroke="#e2e8f0" stroke-width="2"/>
  <circle cx="145" cy="123" r="12" fill="#38bdf8"/>
  <text x="170" y="128" class="t" font-size="16" font-weight="800" fill="#0f172a">Your Product</text>
  <text x="820" y="128" class="t muted">Features</text>
  <text x="900" y="128" class="t muted">Pricing</text>
  <text x="970" y="128" class="t muted">Docs</text>

  <text x="130" y="230" class="t h1">Ship prototypes faster</text>
  <text x="130" y="270" class="t p">React + Admin + API + Postgres + Docker • with Cursor rules + OpenRouter reasoning</text>

  <rect x="130" y="295" width="170" height="46" class="btn" fill="#38bdf8"/>
  <text x="215" y="325" text-anchor="middle" class="t" font-size="15" font-weight="800" fill="#001018">Get Started</text>

  <rect x="315" y="295" width="170" height="46" class="btn" fill="#e2e8f0"/>
  <text x="400" y="325" text-anchor="middle" class="t" font-size="15" font-weight="800" fill="#0f172a">View Demo</text>

  <rect x="640" y="185" width="420" height="230" rx="20" fill="#0f172a" opacity="0.92" filter="url(#shadow)"/>
  <rect x="670" y="215" width="360" height="24" rx="10" fill="#1f2937"/>
  <circle cx="686" cy="227" r="6" fill="#f87171"/><circle cx="706" cy="227" r="6" fill="#fbbf24"/><circle cx="726" cy="227" r="6" fill="#34d399"/>
  <rect x="670" y="255" width="360" height="130" rx="16" fill="#111827"/>
  <text x="850" y="325" text-anchor="middle" class="t" font-size="14" fill="#cbd5e1">Screenshot / Chart Preview</text>

  <rect x="130" y="420" width="300" height="180" class="card"/>
  <text x="160" y="465" class="t h2">Cursor Rules</text>
  <text x="160" y="495" class="t p">6A workflow + guardrails</text>
  <text x="160" y="520" class="t muted">Less repetition, fewer bugs</text>

  <rect x="450" y="420" width="300" height="180" class="card"/>
  <text x="480" y="465" class="t h2">Docker-first</text>
  <text x="480" y="495" class="t p">Compose + health checks</text>
  <text x="480" y="520" class="t muted">Deploy on Ubuntu VPS</text>

  <rect x="770" y="420" width="300" height="180" class="card"/>
  <text x="800" y="465" class="t h2">Reasoning Models</text>
  <text x="800" y="495" class="t p">Startup selects best model</text>
  <text x="800" y="520" class="t muted">OpenRouter /models + effort=high</text>

  <text x="130" y="635" class="t muted">Wireframe placeholder. Replace with real screenshots later.</text>
</svg>
